<svg id="eQke7fCSzyt1" xmlns="http://www.w3.org/2000/svg" xmlns:xlink="http://www.w3.org/1999/xlink" viewBox="0 0 700 595.28" shape-rendering="geometricPrecision" text-rendering="geometricPrecision" project-id="4d2a5ff1211f4074851b62859f241bd1" export-id="abaaeeef4fc049ff9a1edcb1b204cde2" cached="false"><g><path d="M273.42,305.6c-3.05-9.17-2.28-13.07,3.24-16.83c5.17-3.52,9.23-2.85,15.83,2.92c2.48-2.29,5.02-4.62,7.98-7.35c7.52,11.39,14.84,22.49,22.42,33.98-3.31,1.85-6.21,3.47-9.53,5.32c4.88,7.33,9.5,14.3,14.15,21.26c17.66,26.41,35.31,52.83,53,79.22c4.9,7.3,9.91,14.53,14.91,21.77c3.86,5.59,3.46,11.07-1.15,14.64-5.41,4.2-12.4,3.61-16.41-1.84-3.96-5.39-7.45-11.13-11.16-16.7-22.87-34.3-45.74-68.61-68.62-102.9-2.85-4.27-3.1-4.34-7.17-1-16.79,13.77-29,30.61-34.55,51.86-.61,2.35-1.45,3.45-4.05,2.61-19.11-6.2-34.37-16.74-41.8-36.39-3.95-10.44-4.69-21.19-3.82-32.19.21-2.64,1.6-2.8,3.72-2.65c21.46,1.56,41.4-3.61,60.17-13.82c1.02-.53,1.93-1.28,2.84-1.91ZM270.48,323c-3.34.05-5.89,2.74-5.75,6.09.13,3.03,2.61,5.44,5.57,5.42c3.15-.02,5.69-2.57,5.7-5.71.01-3.37-2.35-5.85-5.52-5.8Z" fill="#8d0b0d"/><path d="M492.3,316.18c8.34,18.45,9.73,37.85-5.06,54.85-3.31,3.81-5.95,8.29-8.35,12.76-1.13,2.1-.94,4.89-1.36,7.37.45.22.89.43,1.34.65c35.72-35.02,71.44-70.04,107.16-105.05.31.18.62.36.93.54-2.55,7.38-4.77,14.9-7.71,22.12-7.22,17.75-18.46,32.96-31.08,47.15-9.95,11.19-19.96,22.35-30.59,32.88-4.88,4.83-7.93,10.02-10.53,16.31-2.9,7.01-7.04,14.07-12.36,19.39-9.14,9.14-19.54,17.05-29.59,25.25-2.33,1.9-3.78,3.72-3.88,6.79-.23,7.06-5.36,10.67-11.93,7.89-4.15-1.76-8.01-4.46-11.59-7.26-3.6-2.82-6.56-6.44-10.04-9.44-2.84-2.44-2.51-4.1.08-6.6c15.58-15.05,30.99-30.29,46.52-45.4c1.97-1.92,2.65-3.54,1.79-6.47-1.6-5.42-.05-10.68,2.82-15.45c1.62-2.7,3.33-5.37,5.25-7.86c8.09-10.48,10.32-22.46,9.31-35.33-.42-5.03-.76-10.06-1.13-15.09Zm-5.63,83.75c-.07,2.66,2.51,5.45,5.26,5.28c2.95-.18,4.83-1.83,5-4.96.19-3.28-1.98-5.71-5.06-5.71-2.64-.02-5.13,2.56-5.2,5.39ZM445.08,440.6c-.16,2.77,2.23,5.5,4.89,5.57c2.79.07,5.3-2.28,5.41-5.09.11-2.9-2.18-5.55-4.84-5.59-2.69-.05-5.3,2.4-5.46,5.11Z" fill="#8d0b0d"/><path d="M279.18,171.95c4.48,3.71,8.72,7.23,13.67,11.34-5.74.97-10.26,1.74-14.77,2.5.04.44.07.88.11,1.32c1.32,0,2.64.08,3.95-.01c10.08-.72,19.73.3,27.86,7.11c3.41,2.85,5.4,6.53,5.54,11.23-.6-.77-1.23-1.52-1.79-2.31-5.18-7.35-11.77-8.09-18.19-1.7-2.95,2.94-5.35,6.45-7.96,9.73-7.47,9.39-17.31,12.85-27.85,9.77-.54-.16-1.04-.49-1.58-1.07c8.42-.48,16.12-1.98,19.95-10.55-4.34-.54-8.38-1.05-12.42-1.56.04-.49.07-.98.11-1.47c1.1-.11,2.26-.02,3.27-.37c2.81-.95,5.84-1.65,8.26-3.25c3.05-2.01,2.66-3.82-.79-5.19-12.9-5.12-25.96-4.37-39.06-.8-.84.23-1.68.46-2.68.31c9.34-9.33,22.02-12.24,34.79-17.55-5.24-2.78-9.79-2.89-14.34-2.32-4.46.56-8.86,1.51-13.29,2.3-.16-.31-.31-.62-.47-.93c2.67-1.85,5.33-3.69,8-5.54-.15-.41-.3-.83-.45-1.24-3.88,1.09-7.86,1.92-11.64,3.32-13.65,5.03-24.95,13.36-33.72,24.97-.77,1.01-1.09,3.52-.42,4.29c12.84,14.87,27.49,27.18,47.29,31.59c17.97,4.01,34.3-.71,49.72-9.84c1.81-1.07,3.55-2.26,5.39-3.26c7.59-4.13,15.85-1.64,20.61,6.92-1.67-.98-2.64-1.41-3.46-2.04-5.24-4.03-10.28-4.24-15.8-.18-10.97,8.05-23.5,12.76-36.66,15.78-15.81,3.64-30.47.14-44.33-7.67-14.55-8.2-26.21-19.62-36.48-32.63-1.99-2.52-.65-4,.92-5.73c13.83-15.27,30.73-25.79,50.32-31.88c23.65-7.35,47.1-7.05,70.08,2.87c2.46,1.06,4.77,2.46,7.15,3.7-.13.33-.27.65-.4.98-1.31-.35-2.61-.78-3.93-1.05-7.45-1.52-14.86-3.28-22.37-4.41-6.21-.91-6.84-.37-12.14,4.52Z" fill="#8d0b0d"/><path d="M580.49,208.16c-3.79.39-7.58.77-11.67,1.19c3.76,8.5,11.17,10.29,19.74,10.02-.01.42-.01.83-.02,1.25-2.28.5-4.53,1.3-6.83,1.45-9.65.63-16.88-3.88-22.73-11.12-2.55-3.16-4.81-6.63-7.7-9.44-6.62-6.45-12.64-5.77-18.18,1.65-.53.72-1.11,1.4-1.78,2.25-.74-5.82,4.66-13.06,13.01-15.63c6.85-2.11,14.18-2.64,21.5-4.69-3.56-.46-7.13-.93-11.64-1.51c6.54-7.13,13.71-12.15,22.5-15.19-16.43-2.76-32.27-.23-47.9,4.85-.12-.41-.25-.82-.37-1.24c3.95-1.86,7.8-4.01,11.87-5.53c25.99-9.74,51.58-7.44,76.75,3.06c14.87,6.2,27.73,15.35,38.83,27.07c2.75,2.9,2.75,4.97.23,8.02-10.65,12.83-22.41,24.28-37.25,32.31-17.28,9.35-35.11,10.35-53.21,3.28-8.63-3.37-17.12-7.41-25-12.24-6.23-3.82-11.44-4.69-17.14.12-.49.41-1.12.67-1.69.98-.1.05-.26.01-.39.01c1.36-5.77,9.39-9.9,15.99-7.75c3.18,1.04,6.11,2.98,9.02,4.73c19.07,11.45,39.01,15.13,60.22,6.58c14.87-5.99,26.47-16.4,36.83-28.29.72-.83.28-3.57-.57-4.72-7.06-9.62-16.28-16.77-27.02-21.77-5.58-2.6-11.59-4.25-17.41-6.33-.24.51-.49,1.02-.73,1.53c2.58,1.88,5.17,3.75,7.75,5.63-.13.33-.27.67-.4,1-9.31-1.79-18.65-4.84-27.97.06c12.61,4.06,25.09,8.16,35.21,17.32-15.28-3.97-30.3-5.11-46.35,2.4c2.86,2.31,4.68,4.38,6.96,5.46c2.36,1.12,5.17,1.28,7.78,1.86-.09.44-.17.9-.24,1.37Z" fill="#8d0b0d"/><path d="M602.26,270.75c2.81,8.49,2.95,16.5,1.45,24.59-3.19,17.28-11.39,32.34-20.96,46.75-13.58,20.43-29.93,38.57-47,56.09-2.57,2.63-5.16,5.24-7.71,7.88-1.4,1.45-2.53,1.75-4.28.17-6.33-5.74-6.2-5.8-.16-11.99c20.08-20.61,40.12-41.32,54.72-66.4c8.53-14.64,14.36-30.4,16.79-47.24.68-4.64,3.68-6.87,7.15-9.85Z" fill="#8d0b0d"/><path d="M369.66,391.82c.18-8.14-4.25-13.99-8.96-19.78-5.68-6.97-11.07-14.22-11.86-23.57-.45-5.31-.08-10.68-.08-16.71-6.95,2.85-12.53,6.92-17.32,12.7.25-.84.42-1.72.76-2.53c4.27-10,6.94-20.42,7.38-31.27.33-7.95-1.14-15.71-4.89-22.85-7.64-14.53-9-29.73-4.86-45.49.52-1.98,1.48-3.85,3.04-5.69.06.74.26,1.51.16,2.23-1.85,13.56-.56,26.76,4.95,39.35c1.04,2.39,2.98,4.63,5.03,6.28c3.12,2.51,6.71,4.45,10.79,7.07c0-6.12,0-11.5,0-16.88.38-.08.76-.16,1.13-.25c1.94,18.69,6.69,36.26,19.83,50.49-.27.33-.53.66-.8.99-2.48-1.17-4.88-2.57-7.46-3.44-1.48-.5-3.24-.14-4.88-.16-.11,0-.22.15-.34.2-6.65,2.89-8.73,7.84-8.3,15.07.57,9.54,2.31,18.44,7.91,26.38c2.57,3.65,5.03,7.39,7.32,11.22c3.15,5.28,3.87,10.85,1.45,16.64Z" fill="#8d0b0d"/><path d="M422.97,339.26c-.27-.99-.76-1.97-.78-2.96-.06-3.29-1.97-5.11-4.52-6.86-4.21-2.89-8.54-5.78-12.11-9.38-2.33-2.35-3.42-5.94-5.07-8.96-.55-1.01-1.04-2.07-1.71-3-1.67-2.35-3.75-4.47-5.06-7-1.23-2.39-2.45-5.24-2.25-7.77.2-2.57,1.59-5.71,3.54-7.21.96-.74,4.93,1.08,6.51,2.72c4.35,4.53,8.21,9.54,12.15,14.46c1.86,2.31,3.68,3.82,6.98,2.7c1.63-.55,3.8-.59,5.4.01c3.54,1.33,5.38-.54,7.28-2.91c3.87-4.8,7.56-9.79,11.82-14.21c1.64-1.7,5.98-3.5,6.79-2.75c1.94,1.78,3.9,5.4,3.35,7.65-1.12,4.53-3.92,8.65-6.03,12.94-1.06,2.15-2.03,4.35-3.18,6.45-1.12,2.06-2.08,4.34-3.68,5.97-2.75,2.79-5.79,5.37-8.99,7.63-4.55,3.22-10.14,5.45-9.27,12.91-.38-.15-.77-.29-1.17-.43Z" fill="#8d0b0d"/><path d="M470.16,301.05c0,4.21.65,8.56-.15,12.61-1.38,7.01-2.91,14.17-5.77,20.65-3.44,7.78-10.21,12.46-18.6,14.58-4.93,1.25-9.87,2.55-14.72,4.08-5.93,1.88-11.6,1.28-17.34-.82-3.3-1.21-6.74-2.18-10.19-2.86-10.77-2.13-18.34-8.15-22.59-18.23-3.69-8.74-4.78-17.96-4.46-27.37.03-.87.31-1.73.86-2.57.4,4.32.55,8.68,1.24,12.95c2.06,12.7,7.03,23.71,20.19,28.2c5.08,1.73,10.79,1.86,16.25,2.17s10.98-.41,16.43-.07c20.92,1.32,34.48-9.75,37.01-30.59.52-4.23.84-8.49,1.25-12.73.21.01.4,0,.59,0Z" fill="#8d0b0d"/><path d="M514.82,236.71c3.77,8.52,5.4,17.58,4.22,26.76-.9,7.07-2.2,14.55-5.41,20.77-8.51,16.48-7.41,32.84-1.89,49.58c1.33,4.05,2.97,8.01,4.59,12.34-.76-.2-1.24-.17-1.4-.38-8.69-11.92-14.46-24.85-14.47-39.96c0-7.97,2.14-15.24,5.82-22.19c7.51-14.18,9.5-29.28,7.44-45.05-.07-.57.06-1.16.1-1.74.35-.04.68-.08,1-.13Z" fill="#8d0b0d"/><path d="M328.01,162.25c-6.06-9.14-5.12-20.37,1.64-27.06.9-.89,1.38-2.46,1.58-3.78c1.22-8.01,5.3-13.8,12.7-17.31c1.24-.59,2.47-1.92,2.98-3.2c3.85-9.66,10.46-15.8,20.98-17.54c1.77-.29,3.47-1.67,4.96-2.84c5.79-4.54,11.79-7.77,19.59-5.43c1.61.48,3.76-.66,5.61-1.22c8.37-2.54,15.98-1.57,22.42,4.98-.64-.18-1.34-.24-1.9-.55-7.36-3.97-14.66-3.38-21.81.45-2.08,1.11-3.78,1.57-6.23.79-2.06-.65-4.7-.38-6.81.32-2.3.76-4.55,2.19-6.32,3.86-3.42,3.23-7.08,5.25-11.85,6.23-7.49,1.54-11.6,7.24-13.86,14.25-.73,2.25-1.6,3.84-4.2,4.55-7.14,1.93-10.84,7.06-11.86,14.16-.4,2.76-1.11,4.77-3.96,6.12-3.9,1.84-4.84,5.81-4.8,9.7.04,4.3.69,8.57,1.14,13.52Z" fill="#8d0b0d"/><path d="M518.82,161.45c.38-3.49.95-6.97,1.1-10.47.24-5.51-.72-10.47-6.55-13.13-.96-.44-1.64-2.28-1.8-3.55-1.04-8.06-4.94-13.62-12.98-16.11-1.3-.4-2.64-2.12-3.1-3.51-2.93-8.92-8.45-14.6-18.13-15.79-1.54-.19-3.02-1.37-4.38-2.31-2.89-2.02-5.5-4.54-8.59-6.17-2.06-1.09-5.08-1.91-7.09-1.21-3.44,1.2-5.83.2-8.77-1.24-6.61-3.23-13.4-3.34-20.05.23-.66.35-1.36.61-2.43,1.07c4.18-5.7,13.44-8.29,21.07-5.8c3.67,1.2,7.06,1.88,11.03,1.12c6.2-1.18,10.94,2.56,15.71,5.95c2.15,1.53,4.7,2.77,7.25,3.39c8.44,2.04,14.25,7.09,17.72,14.85c1.27,2.83,2.61,5,5.67,6.44c6.57,3.08,9.76,8.81,10.97,15.85.27,1.56.86,3.48,1.98,4.4c4.6,3.72,5.97,8.62,5.32,14.08-.48,4.08-1.72,8.07-2.63,12.1-.42-.07-.87-.13-1.32-.19Z" fill="#8d0b0d"/><path d="M466.46,343.9c-.65,2.27-1.23,4.57-1.98,6.82-3.28,9.87-7.91,18.85-16.23,25.56-16.31,13.16-47.45,11.97-60.49-13.22-3.1-5.98-5.27-12.44-7.86-18.67.46-.2.92-.39,1.37-.59.64,1.68,1.29,3.36,1.93,5.04c3.11,8.23,7.51,15.61,14.27,21.4c6.66,5.71,14.42,7.66,23.08,6.98c3.89-.31,7.87.37,11.76.03c12.09-1.05,20.22-8.16,26.08-18.13c2.87-4.89,5.03-10.21,7.51-15.33.19.04.38.08.56.11Z" fill="#8d0b0d"/><path d="M524.98,175.39c-1.28,2.44-2.44,4.42-3.39,6.5-1.4,3.09-2.28,6.47-4.04,9.32-2.59,4.2-5.71,4.38-9.51,1.25-1.76-1.45-3.98-4.19-5.35-3.84-2.83.72-5.92,2.6-7.69,4.93-4.5,5.92-8.34,12.34-12.44,18.57-.49.75-.95,1.53-2.19,1.95c1.39-2.89,2.66-5.85,4.2-8.67c5.55-10.17,11.56-20.04,21.04-27.14c5.79-4.34,12.08-6.26,19.12-3.01.35.16.67.38.25.14Z" fill="#8d0b0d"/><path d="M321.88,175.27c6.8-3.39,13.27-1.43,19.32,3.03c9.1,6.72,14.94,16.07,20.34,25.73c1.88,3.36,3.47,6.89,5.19,10.34-.3.15-.59.3-.89.45-2.31-4.05-4.26-8.36-7.02-12.08-3.41-4.58-7.33-8.8-11.33-12.89-2.24-2.29-4.53-2.12-6.89.75-4.77,5.81-9.28,5.12-12.63-1.68-1.1-2.22-1.68-4.69-2.67-6.97-.95-2.12-2.12-4.15-3.42-6.68Z" fill="#8d0b0d"/><path d="M435.33,106.81c2.09,1.02,4.1,2.65,6.29,2.92c2.82.34,6.03.21,8.61-.85c2.44-1,3.57-.81,5.27,1.07c3.46,3.8,7.34,6.81,13.11,4.54.67-.26,2.42,1.07,3.04,2.06c2.32,3.66,5,6.56,9.42,7.81c1.26.36,2.45,2.47,2.88,4c1.19,4.27,2.25,8.39,7.16,10.02.78.26,1.46,1.47,1.78,2.38c1.71,4.88,4.27,8.7,10.51,8.67-3.54,2.11-7.45,1.04-10.62-2.29-2.57-2.69-5.33-5.2-8-7.79-.47-.46-1.21-.87-1.33-1.41-1.85-8.15-9.71-11.05-14.51-16.61-.65-.75-1.98-1.28-3-1.29-4.5-.06-8.13-2.01-11.2-5.02-1.76-1.73-3.4-2.38-5.93-1.84-5.93,1.25-10.2-1.76-13.48-6.37Z" fill="#8d0b0d"/><path d="M342.47,149.15c6.8.48,9.53-3,11.27-7.86.41-1.14,1.19-2.67,2.15-3.01c4.7-1.66,6.26-5.43,6.81-9.75.35-2.76,1.78-3.63,4.11-4.88c3.16-1.7,5.53-4.83,8.31-7.26.94-.82,2.42-2.18,3.12-1.91c5.78,2.24,9.59-.75,13.11-4.56c1.35-1.46,2.45-2.66,4.59-1.23c4.37,2.92,8.7,2.11,12.93-.44.83-.5,1.67-.98,2.94-1.72-2.84,5.1-8.33,7.74-13.84,6.64-2.47-.49-4.14-.07-5.91,1.78-2.97,3.12-6.61,5.07-11.13,5.13-1.1.02-2.3.84-3.25,1.56-2.79,2.12-5.54,4.3-8.16,6.62-1.2,1.06-2.48,2.33-3,3.77-1.49,4.14-3.86,7.28-7.74,9.53-1.68.97-2.79,2.99-4.05,4.62-3.42,4.45-7.46,5.73-12.26,2.97Z" fill="#8d0b0d"/><path d="M439.95,426.42c-1.3-3.93-1.01-8,.96-11.34c2.95-5.01,6.62-9.63,10.24-14.2c1.52-1.92,3.72-3.29,5.57-4.95c6.75-6.02,12.09-12.73,10.41-23.24c3.84,4.43,4.44,11.64,1,16.97-2.94,4.55-6.72,8.61-10.39,12.64-3.69,4.05-8.15,7.47-11.46,11.79-2.67,3.51-4.15,7.95-6.33,12.33Z" fill="#8d0b0d"/><path d="M406.37,426.42c-1.91-10.47-9.23-16.79-16.36-23.47-4.33-4.05-8.24-8.77-11.43-13.77-3.08-4.82-2.9-10.34-.03-16.08.49.74.84,1.01.81,1.26-.87,9.08,3.95,15.37,10.09,21.13c4.39,4.12,8.93,8.16,12.71,12.8c4.21,5.17,6.53,11.24,4.21,18.13Z" fill="#8d0b0d"/><path d="M522,195.37c-.53,12.42-1.43,24.65-11.33,34.17-7.25,6.98-9.48,16.4-11.63,25.76-.84,3.66-1.43,7.37-2.34,12.14-.79-7.8,2.02-27.53,4.9-33.1c1.54-2.97,3.95-5.49,6.01-8.18c6.57-8.59,10.88-18.16,12.72-28.83.13-.74.42-1.44.63-2.17.34.07.69.14,1.04.21Z" fill="#8d0b0d"/><path d="M325.72,195.17c.59,2.64.89,4.22,1.31,5.77c2.91,10.8,7.88,20.41,15.11,29.08c2.85,3.42,4.49,8.29,5.46,12.76c1.62,7.5,2.25,15.22,3.3,22.85-.32.08-.63.17-.95.25-.23-.84-.47-1.67-.68-2.51-1.74-6.98-2.83-14.22-5.41-20.87-1.98-5.1-5.22-10.06-9.01-14.03-5.92-6.19-10.89-21.33-9.13-33.3Z" fill="#8d0b0d"/><path d="M472.41,325.19c12.8-14.76,17.53-32.49,20.34-51.13c0,5.64.64,11.37-.16,16.89-1.05,7.33-2.67,14.69-5.06,21.68-2.33,6.81-7.23,11.64-15.12,12.56Z" fill="#8d0b0d"/><path d="M415.78,134.33c-4.14,3.03-8.68,3.17-13.26,1.56-2.14-.75-3.34-.17-5.19,1.04-3.06,2-6.72,3.06-10.13,4.53-1.77.76-3.86,1.19-5.22,2.42-3.74,3.38-7.47,4.36-12.25,2.23c1.25-.32,2.02-.66,2.82-.71c3.93-.26,6.34-2.46,8.34-5.71.74-1.21,2.74-2.4,4.11-2.34c5.09.22,8.92-1.67,11.72-5.78c1.03-1.52,2.04-2.39,3.78-1.02c4.51,3.53,9.67,4.29,15.28,3.78Z" fill="#8d0b0d"/><path d="M448.41,129.19c3.63,5.8,7.92,9.21,14.63,7.99.69-.13,1.98.5,2.25,1.1c2.11,4.76,5.55,7.51,11.73,7.14-3.97,2.79-8.42,2.2-11.8-1.34-1.86-1.96-3.71-2.46-6.33-2.84-3.2-.46-6.46-2.1-9.14-4.01-2-1.43-3.26-2.26-5.81-1.23-4.47,1.82-9.07,1.07-13.26-1.89c6.58,1.26,12.28-.67,17.73-4.92Z" fill="#8d0b0d"/><path d="M425.92,404.14c-5.22,5.52-3.67,10.72-1.69,16.2c1.72,4.73,3.06,9.65,3.96,14.6.36,1.97-.94,4.23-1.49,6.36-.4-.07-.8-.13-1.2-.2-.17-.8-.3-1.62-.51-2.41-1.31-4.87-2.77-9.7-3.93-14.6-.98-4.14-2.15-8.34-2.26-12.54-.1-3.68,2.25-6.38,7.12-7.41Z" fill="#8d0b0d"/><path d="M270.48,323c3.17-.04,5.53,2.44,5.52,5.8-.01,3.14-2.55,5.69-5.7,5.71-2.96.02-5.44-2.39-5.57-5.42-.14-3.35,2.41-6.05,5.75-6.09Z" fill="#8d0b0d"/><path d="M486.67,399.93c.08-2.83,2.56-5.4,5.21-5.4c3.07.01,5.24,2.43,5.06,5.71-.18,3.14-2.06,4.78-5,4.96-2.77.18-5.35-2.61-5.27-5.27Z" fill="#8d0b0d"/><path d="M445.08,440.6c.16-2.7,2.77-5.16,5.46-5.12c2.66.04,4.95,2.69,4.84,5.59-.11,2.81-2.61,5.17-5.41,5.09-2.66-.07-5.05-2.8-4.89-5.56Z" fill="#8d0b0d"/></g></svg>
